<svg width="31" height="31" viewBox="0 0 31 31" fill="none" xmlns="http://www.w3.org/2000/svg">
<path d="M22.8654 21.5987L28.186 26.9193L26.4291 28.6762L21.1084 23.3556C19.1953 24.8862 16.7692 25.8018 14.1304 25.8018C7.95839 25.8018 2.94922 20.7926 2.94922 14.6206C2.94922 8.44862 7.95839 3.43945 14.1304 3.43945C20.3024 3.43945 25.3116 8.44862 25.3116 14.6206C25.3116 17.2594 24.396 19.6856 22.8654 21.5987ZM20.3728 20.6769C21.892 19.1112 22.8269 16.9756 22.8269 14.6206C22.8269 9.81583 18.9352 5.92416 14.1304 5.92416C9.3256 5.92416 5.43392 9.81583 5.43392 14.6206C5.43392 19.4254 9.3256 23.3171 14.1304 23.3171C16.4854 23.3171 18.621 22.3822 20.1866 20.8631L20.3728 20.6769Z" fill="#343434"/>
</svg>
