<svg width="100" height="100" viewBox="0 0 100 100" fill="none" xmlns="http://www.w3.org/2000/svg">
<circle cx="50" cy="50" r="49" fill="white" stroke="url(#paint0_linear_99_953)" stroke-width="2"/>
<path d="M61 42.6673H64.6667C65.6792 42.6673 66.5 43.4881 66.5 44.5007V66.5007C66.5 67.5132 65.6792 68.334 64.6667 68.334H35.3333C34.3208 68.334 33.5 67.5132 33.5 66.5007V44.5007C33.5 43.4881 34.3208 42.6673 35.3333 42.6673H39V40.834C39 34.7588 43.9249 29.834 50 29.834C56.0751 29.834 61 34.7588 61 40.834V42.6673ZM48.1667 56.8434V61.0007H51.8333V56.8434C52.9293 56.2094 53.6667 55.0245 53.6667 53.6673C53.6667 51.6422 52.0251 50.0007 50 50.0007C47.9749 50.0007 46.3333 51.6422 46.3333 53.6673C46.3333 55.0245 47.0707 56.2094 48.1667 56.8434ZM57.3333 42.6673V40.834C57.3333 36.7839 54.05 33.5007 50 33.5007C45.9499 33.5007 42.6667 36.7839 42.6667 40.834V42.6673H57.3333Z" fill="black"/>
<defs>
<linearGradient id="paint0_linear_99_953" x1="4.8399e-07" y1="26" x2="90" y2="93" gradientUnits="userSpaceOnUse">
<stop stop-color="#FD7103"/>
<stop offset="0.744522" stop-color="#F1AD78" stop-opacity="0.487562"/>
<stop offset="1" stop-color="#E6E6E7" stop-opacity="0"/>
</linearGradient>
</defs>
</svg>
