<svg width="48" height="48" viewBox="0 0 48 48" fill="none" xmlns="http://www.w3.org/2000/svg">
<path d="M42.8577 3.42773H5.14342C3.24987 3.42773 1.71484 4.96276 1.71484 6.85631V20.5706C1.71484 22.4641 3.24987 23.9992 5.14342 23.9992H42.8577C44.7513 23.9992 46.2863 22.4641 46.2863 20.5706V6.85631C46.2863 4.96276 44.7513 3.42773 42.8577 3.42773Z" stroke="#FD7103" stroke-width="2" stroke-linecap="round" stroke-linejoin="round"/>
<path d="M11.9994 15.4286C12.9462 15.4286 13.7137 14.6611 13.7137 13.7143C13.7137 12.7675 12.9462 12 11.9994 12C11.0527 12 10.2852 12.7675 10.2852 13.7143C10.2852 14.6611 11.0527 15.4286 11.9994 15.4286Z" stroke="#FD7103" stroke-width="2" stroke-linecap="round" stroke-linejoin="round"/>
<path d="M25.7148 13.7129H37.7148" stroke="#FD7103" stroke-width="2" stroke-linecap="round" stroke-linejoin="round"/>
<path d="M5.14342 24C4.2341 24 3.36203 24.3612 2.71905 25.0042C2.07607 25.6472 1.71484 26.5193 1.71484 27.4286V41.1429C1.71484 42.0522 2.07607 42.9242 2.71905 43.5672C3.36203 44.2102 4.2341 44.5714 5.14342 44.5714H42.8577C43.767 44.5714 44.6391 44.2102 45.2821 43.5672C45.9251 42.9242 46.2863 42.0522 46.2863 41.1429V27.4286C46.2863 26.5193 45.9251 25.6472 45.2821 25.0042C44.6391 24.3612 43.767 24 42.8577 24" stroke="#FD7103" stroke-width="2" stroke-linecap="round" stroke-linejoin="round"/>
<path d="M11.9994 35.9989C12.9462 35.9989 13.7137 35.2314 13.7137 34.2846C13.7137 33.3378 12.9462 32.5703 11.9994 32.5703C11.0527 32.5703 10.2852 33.3378 10.2852 34.2846C10.2852 35.2314 11.0527 35.9989 11.9994 35.9989Z" stroke="#FD7103" stroke-width="2" stroke-linecap="round" stroke-linejoin="round"/>
<path d="M25.7148 34.2852H37.7148" stroke="#FD7103" stroke-width="2" stroke-linecap="round" stroke-linejoin="round"/>
</svg>
