<svg width="32" height="32" viewBox="0 0 32 32" fill="none" xmlns="http://www.w3.org/2000/svg">
<path d="M24.0426 22.1551L29.7529 27.8653L27.8673 29.7509L22.157 24.0407C20.1038 25.6833 17.5 26.666 14.668 26.666C8.04397 26.666 2.66797 21.29 2.66797 14.666C2.66797 8.04201 8.04397 2.66602 14.668 2.66602C21.292 2.66602 26.668 8.04201 26.668 14.666C26.668 17.498 25.6853 20.1019 24.0426 22.1551ZM21.3676 21.1657C22.998 19.4855 24.0013 17.1935 24.0013 14.666C24.0013 9.50935 19.8246 5.33268 14.668 5.33268C9.5113 5.33268 5.33463 9.50935 5.33463 14.666C5.33463 19.8227 9.5113 23.9993 14.668 23.9993C17.1954 23.9993 19.4874 22.996 21.1677 21.3656L21.3676 21.1657Z" fill="#CCCCCC"/>
</svg>
