<svg width="44" height="44" viewBox="0 0 44 44" fill="none" xmlns="http://www.w3.org/2000/svg">
<g id="Frame">
<path id="Vector" d="M33.0581 30.4635L40.9098 38.3151L38.3171 40.9078L30.4654 33.0562C27.6423 35.3148 24.062 36.666 20.168 36.666C11.06 36.666 3.66797 29.274 3.66797 20.166C3.66797 11.058 11.06 3.66602 20.168 3.66602C29.276 3.66602 36.668 11.058 36.668 20.166C36.668 24.06 35.3168 27.6403 33.0581 30.4635ZM29.3799 29.1031C31.6217 26.7928 33.0013 23.6413 33.0013 20.166C33.0013 13.0756 27.2584 7.33268 20.168 7.33268C13.0776 7.33268 7.33464 13.0756 7.33464 20.166C7.33464 27.2564 13.0776 32.9993 20.168 32.9993C23.6432 32.9993 26.7947 31.6198 29.1051 29.378L29.3799 29.1031Z" fill="#CCCCCC"/>
</g>
</svg>
