<svg width="20" height="20" viewBox="0 0 20 20" fill="none" xmlns="http://www.w3.org/2000/svg">
<path d="M3.76673 4.94544L1.16106 2.33977L2.33957 1.16125L18.8388 17.6604L17.6603 18.839L14.9019 16.0806C13.4842 16.9795 11.8028 17.5001 9.99993 17.5001C5.50644 17.5001 1.76813 14.267 0.984375 10.0001C1.34828 8.01898 2.34911 6.26071 3.76673 4.94544ZM12.2978 13.4765L11.0778 12.2565C10.7513 12.4126 10.3858 12.5001 9.99993 12.5001C8.61918 12.5001 7.49989 11.3808 7.49989 10.0001C7.49989 9.61413 7.58736 9.24863 7.74353 8.92221L6.52356 7.70227C6.08729 8.36096 5.83322 9.15088 5.83322 10.0001C5.83322 12.3013 7.69871 14.1668 9.99993 14.1668C10.8491 14.1668 11.639 13.9127 12.2978 13.4765ZM6.64506 3.13342C7.68407 2.72462 8.81576 2.5001 9.99993 2.5001C14.4933 2.5001 18.2317 5.73323 19.0154 10.0001C18.7553 11.4165 18.1695 12.719 17.3387 13.827L14.1222 10.6105C14.1514 10.4113 14.1666 10.2075 14.1666 10.0001C14.1666 7.6989 12.3011 5.83343 9.99993 5.83343C9.79251 5.83343 9.58868 5.84857 9.38943 5.87782L6.64506 3.13342Z" fill="#9E9EA8"/>
</svg>
