<svg width="20" height="20" viewBox="0 0 20 20" fill="none" xmlns="http://www.w3.org/2000/svg">
<g id="Frame">
<path id="Vector" d="M3.76698 4.94629L1.1613 2.34063L2.33982 1.16211L18.839 17.6612L17.6605 18.8398L14.9022 16.0815C13.4844 16.9804 11.8031 17.501 10.0002 17.501C5.50669 17.501 1.76838 14.2678 0.984619 10.001C1.34852 8.01983 2.34935 6.26157 3.76698 4.94629ZM12.298 13.4773L11.078 12.2573C10.7516 12.4135 10.3861 12.501 10.0002 12.501C8.61942 12.501 7.50014 11.3817 7.50014 10.001C7.50014 9.61498 7.5876 9.24948 7.74378 8.92307L6.5238 7.70313C6.08754 8.36182 5.83347 9.15173 5.83347 10.001C5.83347 12.3022 7.69895 14.1677 10.0002 14.1677C10.8493 14.1677 11.6393 13.9136 12.298 13.4773ZM6.6453 3.13428C7.68431 2.72548 8.816 2.50095 10.0002 2.50095C14.4936 2.50095 18.2319 5.73408 19.0157 10.001C18.7555 11.4173 18.1698 12.7198 17.3389 13.8279L14.1224 10.6114C14.1517 10.4122 14.1668 10.2083 14.1668 10.001C14.1668 7.69976 12.3013 5.83428 10.0002 5.83428C9.79275 5.83428 9.58892 5.84943 9.38967 5.87868L6.6453 3.13428Z" fill="#9E9EA8"/>
</g>
</svg>
