<svg width="1201" height="362" viewBox="0 0 1201 362" fill="none" xmlns="http://www.w3.org/2000/svg">
<path d="M27.5637 167.398L0.00140753 115.341L0 362H1201V0L1128.42 57.92L1088.64 82.3862L1053.7 161.777L1008.54 170.764L982.734 217.2H939.726L907.47 192.734L860.161 246.659L795.111 258.143L760.167 311.57L727.851 287.437L687.018 281.312L663.539 239.666L625.768 230.48L567.581 234.767L532.873 269.063L485.915 287.437L449.165 275.188L413.436 247.016L382.811 269.063L331.77 258.039L289.916 269.063L261.333 234.767L230.708 230.48L201.104 209.044L144.959 185.771L118.417 193.121L63.2926 160.661L27.5637 167.398Z" fill="url(#paint0_linear_99_584)"/>
<defs>
<linearGradient id="paint0_linear_99_584" x1="351.22" y1="101.915" x2="351.22" y2="408.27" gradientUnits="userSpaceOnUse">
<stop stop-color="#FF9900" stop-opacity="0.22"/>
<stop offset="1" stop-color="#FF9900" stop-opacity="0"/>
</linearGradient>
</defs>
</svg>
