<svg width="1204" height="316" viewBox="0 0 1204 316" fill="none" xmlns="http://www.w3.org/2000/svg">
<path d="M2 117L29.5594 169.133L65.2846 162.387L120.403 194.893L146.942 187.533L203.082 210.84L232.683 232.307L263.304 236.6L291.884 270.947L333.734 259.907L384.77 270.947L415.392 248.867L451.117 277.08L487.863 289.347L534.816 270.947L569.52 236.6L627.701 232.307L665.468 241.507L688.944 283.213L729.773 289.347L762.633 313L797.045 259.907L861.03 248.867L909.422 195L942.758 219H983.085L1009.97 172.5L1055.14 162.5L1089.55 84L1130.41 59L1203 2" stroke="#FF9900" stroke-width="3"/>
</svg>
