<svg width="167" height="179" viewBox="0 0 167 179" fill="none" xmlns="http://www.w3.org/2000/svg">
<g clip-path="url(#clip0_99_746)">
<path d="M83.5007 179C82.9708 179 82.4396 178.842 81.9834 178.527C57.4939 161.634 36.7977 138.438 22.1305 111.443C15.011 98.3391 9.49847 84.6588 5.74404 70.7787C1.93207 56.6868 0 42.623 0 28.9775C0 27.4961 1.19751 26.2962 2.676 26.2962C16.8066 26.2962 38.984 18.6516 41.7042 2.24162C41.9183 0.947863 43.0355 0 44.3441 0H122.656C123.965 0 125.082 0.947863 125.296 2.24162C128.017 18.6502 150.193 26.2962 164.324 26.2962C165.802 26.2962 167 27.4961 167 28.9775C167 42.623 165.068 56.6868 161.256 70.78C157.502 84.6588 151.989 98.3405 144.869 111.444C130.202 138.439 109.506 161.637 85.0166 178.528C84.5604 178.843 84.0292 179.001 83.4993 179.001L83.5007 179ZM5.37609 31.5825C6.33945 84.9819 36.7335 140.071 83.5007 173.051C130.268 140.071 160.662 84.9819 161.625 31.5825C153.599 31.136 144.871 28.7563 137.781 25.0279C128.504 20.1491 122.572 13.384 120.492 5.36273H46.5089C44.4297 13.384 38.497 20.1478 29.2206 25.0279C22.1292 28.7577 13.4028 31.1374 5.37609 31.5825Z" fill="black"/>
<path d="M83.5022 12.2012H51.3086C44.6467 26.9339 27.5323 35.1242 12.457 37.646C13.0859 47.4799 14.7731 57.5163 17.4986 67.5888C21.0042 80.5506 26.1608 93.342 32.8268 105.611C45.491 128.921 62.9291 149.198 83.5022 164.606V12.2012Z" fill="url(#paint0_linear_99_746)"/>
<circle cx="83" cy="80" r="32" fill="white"/>
<path d="M94.009 94.6667H72.009V98.3333H68.3423V94.6667H66.509C65.4965 94.6667 64.6757 93.8459 64.6757 92.8333V65.3333C64.6757 64.3208 65.4965 63.5 66.509 63.5H99.509C100.522 63.5 101.342 64.3208 101.342 65.3333V92.8333C101.342 93.8459 100.522 94.6667 99.509 94.6667H97.6757V98.3333H94.009V94.6667ZM81.1757 83.4357V89.1667H84.8424V83.4357C88.0052 82.6215 90.3424 79.7503 90.3424 76.3333C90.3424 72.2832 87.0591 69 83.009 69C78.9589 69 75.6757 72.2832 75.6757 76.3333C75.6757 79.7503 78.0128 82.6215 81.1757 83.4357ZM83.009 80C80.9839 80 79.3424 78.3584 79.3424 76.3333C79.3424 74.3083 80.9839 72.6667 83.009 72.6667C85.0341 72.6667 86.6757 74.3083 86.6757 76.3333C86.6757 78.3584 85.0341 80 83.009 80Z" fill="black"/>
</g>
<defs>
<linearGradient id="paint0_linear_99_746" x1="77.5" y1="81.5" x2="-44" y2="67.5" gradientUnits="userSpaceOnUse">
<stop/>
<stop offset="1" stop-opacity="0"/>
</linearGradient>
<clipPath id="clip0_99_746">
<rect width="167" height="179" fill="white"/>
</clipPath>
</defs>
</svg>
