<svg width="48" height="48" viewBox="0 0 48 48" fill="none" xmlns="http://www.w3.org/2000/svg">
<g clip-path="url(#clip0_99_666)">
<path d="M25.2348 46.0463C24.4405 46.3528 23.5606 46.3528 22.7663 46.0463V46.0463C16.5629 43.6139 11.2364 39.3688 7.4813 33.8646C3.72618 28.3603 1.71668 21.8523 1.71484 15.1891V5.14342C1.71484 4.2341 2.07607 3.36203 2.71905 2.71905C3.36203 2.07607 4.2341 1.71484 5.14342 1.71484H42.8577C43.767 1.71484 44.6391 2.07607 45.2821 2.71905C45.9251 3.36203 46.2863 4.2341 46.2863 5.14342V15.1548C46.2913 21.8239 44.2851 28.3394 40.5295 33.8504C36.7739 39.3614 31.4436 43.6118 25.2348 46.0463V46.0463Z" stroke="#FD7103" stroke-width="2" stroke-linecap="round" stroke-linejoin="round"/>
<path d="M29.144 18.8574H18.8583C16.9647 18.8574 15.4297 20.3924 15.4297 22.286V29.1431C15.4297 31.0367 16.9647 32.5717 18.8583 32.5717H29.144C31.0375 32.5717 32.5725 31.0367 32.5725 29.1431V22.286C32.5725 20.3924 31.0375 18.8574 29.144 18.8574Z" stroke="#FD7103" stroke-width="2" stroke-linecap="round" stroke-linejoin="round"/>
<path d="M29.1451 18.8585V15.43C29.1451 14.7546 29.0121 14.0858 28.7536 13.4619C28.4952 12.8379 28.1163 12.271 27.6388 11.7934C27.1612 11.3159 26.5943 10.937 25.9703 10.6786C25.3464 10.4201 24.6776 10.2871 24.0022 10.2871C23.3269 10.2871 22.6581 10.4201 22.0341 10.6786C21.4102 10.937 20.8432 11.3159 20.3657 11.7934C19.8881 12.271 19.5093 12.8379 19.2509 13.4619C18.9924 14.0858 18.8594 14.7546 18.8594 15.43V18.8585" stroke="#FD7103" stroke-width="2" stroke-linecap="round" stroke-linejoin="round"/>
</g>
<defs>
<clipPath id="clip0_99_666">
<rect width="48" height="48" fill="white"/>
</clipPath>
</defs>
</svg>
