<svg width="297" height="209" viewBox="0 0 297 209" fill="none" xmlns="http://www.w3.org/2000/svg">
<g filter="url(#filter0_d_99_797)">
<path d="M0 9.10596C0 4.07688 4.07688 0 9.10596 0H265.894C270.923 0 275 4.07688 275 9.10596V177.566C275 182.595 270.923 186.672 265.894 186.672H9.10596C4.07688 186.672 0 182.595 0 177.566V9.10596Z" fill="white"/>
</g>
<g filter="url(#filter1_d_99_797)">
<path fill-rule="evenodd" clip-rule="evenodd" d="M265.894 0.910596H9.10596C4.57979 0.910596 0.910596 4.57979 0.910596 9.10596V177.566C0.910596 182.092 4.57979 185.762 9.10596 185.762H265.894C270.42 185.762 274.089 182.092 274.089 177.566V9.10596C274.089 4.57979 270.42 0.910596 265.894 0.910596ZM9.10596 0C4.07688 0 0 4.07688 0 9.10596V177.566C0 182.595 4.07688 186.672 9.10596 186.672H265.894C270.923 186.672 275 182.595 275 177.566V9.10596C275 4.07688 270.923 0 265.894 0H9.10596Z" fill="black"/>
</g>
<path d="M22.2461 28.9031H26.0706V27.8323H27.1524V28.9031H30.9769V29.7773H22.2461V28.9031ZM22.6941 27.4607C24.6282 27.3187 25.8958 26.6194 26.016 25.7233H23.1203V24.8819H26.0706V23.9531H27.1524V24.8819H30.1136V25.7233H27.207C27.3272 26.6194 28.5838 27.3187 30.5179 27.4607L30.2011 28.2803C28.5292 28.1273 27.207 27.5919 26.606 26.7177C26.005 27.5919 24.6938 28.1273 23.0219 28.2803L22.6941 27.4607ZM23.2732 32.0174C23.2732 30.9684 24.508 30.3892 26.606 30.3892C28.6931 30.3892 29.9279 30.9684 29.9279 32.0174C29.9279 33.0554 28.6931 33.6237 26.606 33.6237C24.508 33.6237 23.2732 33.0554 23.2732 32.0174ZM24.355 32.0174C24.355 32.5419 25.1527 32.826 26.606 32.826C28.0484 32.826 28.8461 32.5419 28.8461 32.0174C28.8461 31.4601 28.0484 31.1869 26.606 31.1869C25.1527 31.1869 24.355 31.4601 24.355 32.0174Z" fill="black"/>
<path d="M40.8823 23.9641H41.8985V33.6346H40.8823V28.619H39.7568V33.1647H38.7405V24.1607H39.7568V27.7448H40.8823V23.9641ZM33.9872 31.1104V25.0349H37.7134V31.1104H33.9872ZM34.9816 30.269H36.7081V25.8763H34.9816V30.269Z" fill="black"/>
<path d="M49.3511 23.9641H50.4219V26.3352H51.7988V27.2203H50.4219V29.6134H49.3511V23.9641ZM42.8276 28.7064C45.1004 28.1164 46.4335 26.9144 46.6193 25.4174H43.2756V24.5541H47.7666C47.7666 27.0455 46.1057 28.7939 43.2646 29.5588L42.8276 28.7064ZM44.0842 30.9028V30.0395H50.4219V33.6346H49.3511V30.9028H44.0842Z" fill="black"/>
<path d="M55.3992 30.6624H56.47V32.5637H62.0538V33.4379H55.3992V30.6624ZM54.2955 29.9521V29.0998H58.12V27.5591H59.1909V29.0998H63.0482V29.9521H54.2955ZM54.82 27.3296C56.6995 27.0237 58.12 25.8763 58.12 24.6088V24.2263H59.2018V24.6088C59.2018 25.8982 60.6114 27.0346 62.4909 27.3296L62.0647 28.171C60.5459 27.8978 59.2564 27.122 58.6555 26.0293C58.0545 27.1111 56.7651 27.8978 55.2353 28.171L54.82 27.3296Z" fill="black"/>
<path d="M64.9716 30.1816H71.4733V33.6346H70.3915V31.0558H64.9716V30.1816ZM63.7041 26.8379C63.7041 25.4829 64.7968 24.5213 66.261 24.5213C67.7362 24.5213 68.818 25.4829 68.818 26.8379C68.818 28.2038 67.7362 29.1544 66.261 29.1544C64.7968 29.1544 63.7041 28.2038 63.7041 26.8379ZM64.7421 26.8379C64.7421 27.7011 65.3868 28.2584 66.261 28.2584C67.1352 28.2584 67.7799 27.7011 67.7799 26.8379C67.7799 25.9856 67.1352 25.4392 66.261 25.4392C65.3868 25.4392 64.7421 25.9856 64.7421 26.8379ZM70.3915 29.679V23.9641H71.4733V29.679H70.3915Z" fill="black"/>
<path d="M30.1063 127.947H31.2072V138.424H30.1063V132.99H28.8871V137.915H27.7861V128.16H28.8871V132.043H30.1063V127.947ZM22.6367 135.689V129.107H26.6734V135.689H22.6367ZM23.714 134.778H25.5843V130.019H23.714V134.778Z" fill="black"/>
<path d="M36.4043 128.302H37.6236V128.847C37.6236 130.22 39.2454 131.546 41.3288 131.842L40.8671 132.765C39.1507 132.493 37.6946 131.605 37.0199 130.386C36.3451 131.617 34.8891 132.493 33.1608 132.765L32.6991 131.842C34.8062 131.546 36.4043 130.244 36.4043 128.847V128.302ZM32.2729 134.73V133.771H41.7431V134.73H37.5644V138.424H36.4043V134.73H32.2729Z" fill="black"/>
<path d="M43.4599 128.468H50.5625V129.261C50.5625 130.102 50.5625 131.025 50.3021 132.292H51.7581V133.239H42.2643V132.292H49.1538C49.4143 131.096 49.4261 130.208 49.4261 129.415H43.4599V128.468ZM43.4125 138.305V134.529H50.5744V138.305H43.4125ZM44.5489 137.37H49.4379V135.452H44.5489V137.37Z" fill="black"/>
<path d="M26.4087 88.236H27.628V88.7805C27.628 90.1537 29.2498 91.4795 31.3332 91.7755L30.8715 92.6988C29.1551 92.4266 27.699 91.5387 27.0243 90.3194C26.3495 91.5506 24.8935 92.4266 23.1652 92.6988L22.7035 91.7755C24.8106 91.4795 26.4087 90.1774 26.4087 88.7805V88.236ZM22.2773 94.6639V93.705H31.7475V94.6639H27.5688V98.3573H26.4087V94.6639H22.2773Z" fill="black"/>
<path d="M33.8431 94.6165H40.8866V98.3573H39.7146V95.5636H33.8431V94.6165ZM32.4699 90.9942C32.4699 89.5263 33.6537 88.4846 35.24 88.4846C36.8381 88.4846 38.01 89.5263 38.01 90.9942C38.01 92.4739 36.8381 93.5038 35.24 93.5038C33.6537 93.5038 32.4699 92.4739 32.4699 90.9942ZM33.5945 90.9942C33.5945 91.9294 34.2929 92.5331 35.24 92.5331C36.187 92.5331 36.8854 91.9294 36.8854 90.9942C36.8854 90.0708 36.187 89.479 35.24 89.479C34.2929 89.479 33.5945 90.0708 33.5945 90.9942ZM39.7146 94.072V87.8809H40.8866V94.072H39.7146Z" fill="black"/>
<path d="M42.26 92.6041H51.7539V93.4683H49.268V94.2851H50.582V96.6171H44.5329V97.4458H50.9016V98.2626H43.3846V95.8477H49.4455V95.1019H43.3609V94.2851H44.7341V93.4683H42.26V92.6041ZM43.4438 88.9463V88.1295H50.5464V90.4141H44.6039V91.1599H50.7477V91.9767H43.4675V89.6565H49.3982V88.9463H43.4438ZM45.8705 94.2851H48.1197V93.4683H45.8705V94.2851Z" fill="black"/>
<path d="M30.1063 152.533H31.2072V163.01H30.1063V157.576H28.8871V162.501H27.7861V152.746H28.8871V156.629H30.1063V152.533ZM22.6367 160.275V153.693H26.6734V160.275H22.6367ZM23.714 159.364H25.5843V154.605H23.714V159.364Z" fill="black"/>
<path d="M39.2809 152.533H40.441V155.102H41.9325V156.061H40.441V158.653H39.2809V152.533ZM32.2137 157.671C34.676 157.032 36.1202 155.73 36.3214 154.108H32.6991V153.173H37.5644C37.5644 155.872 35.7651 157.766 32.6872 158.594L32.2137 157.671ZM33.5751 160.05V159.115H40.441V163.01H39.2809V160.05H33.5751Z" fill="black"/>
<path d="M50.6036 154.333H52.1306V152.533H53.2907V158.985H52.1306V157.186H50.6036V156.239H52.1306V155.268H50.6036V154.333ZM44.6492 157.482H45.8685V154.226H44.9215V153.279H50.4379V154.226H49.4672V157.351C49.8815 157.316 50.2958 157.28 50.6864 157.233L50.7575 158.085C48.7687 158.417 46.4485 158.44 44.7676 158.44L44.6492 157.482ZM46.2828 161.08C46.2828 159.873 47.6205 159.174 49.8223 159.174C52.0123 159.174 53.3381 159.873 53.3381 161.08C53.3381 162.299 52.0123 162.998 49.8223 162.998C47.6205 162.998 46.2828 162.299 46.2828 161.08ZM47.0049 157.458C47.4429 157.446 47.9046 157.434 48.3544 157.41V154.226H47.0049V157.458ZM47.4429 161.08C47.4429 161.731 48.2952 162.11 49.8223 162.11C51.3138 162.11 52.1898 161.731 52.1898 161.08C52.1898 160.429 51.3138 160.062 49.8223 160.062C48.2952 160.062 47.4429 160.429 47.4429 161.08Z" fill="black"/>
<path d="M61.5656 152.521H62.7375V156.688H64.3356V157.647H62.7375V163.01H61.5656V152.521ZM54.6287 160.192C57.2093 158.878 58.6062 157.008 58.8311 154.581H55.1496V153.634H60.003C60.003 156.677 58.7009 159.364 55.2798 161.08L54.6287 160.192Z" fill="black"/>
<path d="M65.8156 153.054H72.9183V153.847C72.9183 154.688 72.9183 155.611 72.6579 156.878H74.1139V157.825H64.62V156.878H71.5096C71.77 155.682 71.7819 154.794 71.7819 154.001H65.8156V153.054ZM65.7683 162.891V159.115H72.9301V162.891H65.7683ZM66.9047 161.956H71.7937V160.038H66.9047V161.956Z" fill="black"/>
<path d="M196.919 129.64V132.576H199.855V133.689H196.919V136.612H195.819V133.689H192.883V132.576H195.819V129.64H196.919Z" fill="black"/>
<path d="M205.882 127.947H206.888V128.764C207.705 128.894 208.486 129.297 208.9 129.948L207.965 130.587C207.752 130.232 207.338 130.019 206.888 129.912V132.671C207.101 132.753 207.338 132.836 207.574 132.919C210.226 133.831 209.516 137.453 206.888 137.702V138.447H205.882V137.654C204.804 137.465 203.869 136.802 203.467 135.784L204.497 135.346C204.733 135.961 205.254 136.364 205.882 136.518V133.464C205.408 133.262 205.041 133.073 204.852 132.943C203.857 132.256 203.502 131.061 203.988 130.019C204.307 129.356 205.041 128.882 205.882 128.752V127.947ZM205.006 130.492C204.769 131.025 204.958 131.652 205.479 132.008C205.562 132.067 205.704 132.15 205.882 132.233V129.9C205.479 129.983 205.148 130.196 205.006 130.492ZM206.888 136.577C208.296 136.34 208.663 134.458 207.207 133.985C207.101 133.949 206.994 133.902 206.888 133.866V136.577Z" fill="black"/>
<path d="M215.246 128.93V134.257H216.394V135.239H215.246V137.524H214.121V135.239H210.404L210.286 134.257L214.169 128.93H215.246ZM211.636 134.257H214.121V130.824L211.636 134.257Z" fill="black"/>
<path d="M221.747 133.085C222.516 133.535 222.978 134.375 222.978 135.097C222.978 136.553 221.794 137.595 220.101 137.595C218.432 137.595 217.249 136.541 217.249 135.05H218.373C218.373 135.961 219.083 136.601 220.101 136.601C221.143 136.601 221.877 135.961 221.877 135.05C221.877 134.174 221.155 133.558 220.125 133.558H219.51V132.6H220.137C221.084 132.6 221.747 132.031 221.747 131.238C221.747 130.421 221.108 129.853 220.184 129.853C219.261 129.853 218.622 130.433 218.622 131.25H217.497C217.497 129.841 218.61 128.859 220.184 128.859C221.747 128.859 222.848 129.829 222.848 131.203C222.848 131.854 222.445 132.635 221.747 133.085Z" fill="black"/>
<path d="M226.718 136.684C227.748 136.684 228.47 136.021 228.47 135.074C228.47 134.138 227.748 133.487 226.718 133.487C225.676 133.487 224.954 134.138 224.954 135.074C224.954 136.021 225.676 136.684 226.718 136.684ZM223.83 135.085C223.83 134.328 224.41 133.464 225.238 132.99C224.552 132.528 224.066 131.759 224.066 131.143C224.066 129.758 225.155 128.788 226.718 128.788C228.269 128.788 229.37 129.758 229.37 131.143C229.37 131.771 228.884 132.528 228.198 132.99C229.015 133.464 229.595 134.328 229.595 135.085C229.595 136.589 228.411 137.654 226.718 137.654C225.025 137.654 223.83 136.589 223.83 135.085ZM225.191 131.132C225.191 131.937 225.818 132.505 226.718 132.505C227.618 132.505 228.245 131.937 228.245 131.132C228.245 130.315 227.618 129.747 226.718 129.747C225.818 129.747 225.191 130.315 225.191 131.132Z" fill="black"/>
<path d="M235.405 128.93V134.257H236.554V135.239H235.405V137.524H234.281V135.239H230.564L230.445 134.257L234.328 128.93H235.405ZM231.795 134.257H234.281V130.824L231.795 134.257Z" fill="black"/>
<path d="M238.166 136.364C238.568 136.364 238.84 136.648 238.84 137.039C238.84 137.453 238.568 137.737 238.166 137.737C237.751 137.737 237.467 137.453 237.467 137.039C237.467 136.648 237.751 136.364 238.166 136.364Z" fill="black"/>
<path d="M243.237 129.818C242.16 129.818 241.414 130.587 241.414 131.688C241.414 132.789 242.16 133.558 243.237 133.558C244.279 133.558 245.025 132.789 245.025 131.688C245.025 130.587 244.279 129.818 243.237 129.818ZM240.29 131.688C240.29 130.007 241.497 128.835 243.214 128.835C244.942 128.835 246.149 130.007 246.149 131.688C246.149 132.304 245.936 132.86 245.688 133.31L243.296 137.536H242.006L243.746 134.482C243.569 134.517 243.391 134.541 243.202 134.541C241.485 134.541 240.29 133.357 240.29 131.688Z" fill="black"/>
<path d="M247.128 136.541C248.845 134.884 251.271 133.073 251.271 131.593C251.271 130.575 250.632 129.853 249.709 129.853C249.022 129.853 248.324 130.362 248.004 131.084L247.01 130.658C247.471 129.581 248.596 128.835 249.709 128.835C251.295 128.835 252.396 129.972 252.396 131.593C252.396 133.404 250.324 135.109 248.691 136.541H252.538V137.524H247.246L247.128 136.541Z" fill="black"/>
<path d="M219.962 96.5458C221.181 96.5458 222.01 95.1608 222.01 93.1602C222.01 91.1478 221.181 89.7746 219.962 89.7746C218.742 89.7746 217.914 91.1478 217.914 93.1602C217.914 95.1608 218.742 96.5458 219.962 96.5458ZM216.789 93.1602C216.789 90.5914 218.103 88.7802 219.962 88.7802C221.82 88.7802 223.134 90.5914 223.134 93.1602C223.134 95.729 221.82 97.5402 219.962 97.5402C218.103 97.5402 216.789 95.729 216.789 93.1602Z" fill="black"/>
<path d="M224.741 96.2972C225.143 96.2972 225.415 96.5813 225.415 96.972C225.415 97.3863 225.143 97.6704 224.741 97.6704C224.326 97.6704 224.042 97.3863 224.042 96.972C224.042 96.5813 224.326 96.2972 224.741 96.2972Z" fill="black"/>
<path d="M230.026 96.5458C231.245 96.5458 232.073 95.1608 232.073 93.1602C232.073 91.1478 231.245 89.7746 230.026 89.7746C228.806 89.7746 227.978 91.1478 227.978 93.1602C227.978 95.1608 228.806 96.5458 230.026 96.5458ZM226.853 93.1602C226.853 90.5914 228.167 88.7802 230.026 88.7802C231.884 88.7802 233.198 90.5914 233.198 93.1602C233.198 95.729 231.884 97.5402 230.026 97.5402C228.167 97.5402 226.853 95.729 226.853 93.1602Z" fill="black"/>
<path d="M237.208 96.5458C238.427 96.5458 239.256 95.1608 239.256 93.1602C239.256 91.1478 238.427 89.7746 237.208 89.7746C235.988 89.7746 235.16 91.1478 235.16 93.1602C235.16 95.1608 235.988 96.5458 237.208 96.5458ZM234.035 93.1602C234.035 90.5914 235.349 88.7802 237.208 88.7802C239.066 88.7802 240.38 90.5914 240.38 93.1602C240.38 95.729 239.066 97.5402 237.208 97.5402C235.349 97.5402 234.035 95.729 234.035 93.1602Z" fill="black"/>
<path d="M243.644 97.4692L249.054 88.8276H250.238L244.804 97.4692H243.644ZM241.655 91.0294C241.655 89.7154 242.662 88.6855 243.952 88.6855C245.219 88.6855 246.237 89.7154 246.237 91.0294C246.237 92.3552 245.219 93.3851 243.952 93.3851C242.662 93.3851 241.655 92.3552 241.655 91.0294ZM242.744 91.0294C242.744 91.7515 243.265 92.3197 243.952 92.3197C244.627 92.3197 245.159 91.7515 245.159 91.0294C245.159 90.3192 244.627 89.7509 243.952 89.7509C243.265 89.7509 242.744 90.3192 242.744 91.0294ZM247.539 95.2081C247.539 93.8823 248.545 92.8524 249.835 92.8524C251.102 92.8524 252.12 93.8823 252.12 95.2081C252.12 96.5221 251.102 97.5639 249.835 97.5639C248.545 97.5639 247.539 96.5221 247.539 95.2081ZM248.628 95.2081C248.628 95.9184 249.149 96.4866 249.835 96.4866C250.51 96.4866 251.043 95.9184 251.043 95.2081C251.043 94.486 250.51 93.9297 249.835 93.9297C249.149 93.9297 248.628 94.486 248.628 95.2081Z" fill="black"/>
<path d="M206.103 154.226V157.161H209.039V158.274H206.103V161.198H205.002V158.274H202.066V157.161H205.002V154.226H206.103Z" fill="black"/>
<path d="M215.349 161.269C216.379 161.269 217.101 160.606 217.101 159.659C217.101 158.724 216.379 158.073 215.349 158.073C214.308 158.073 213.585 158.724 213.585 159.659C213.585 160.606 214.308 161.269 215.349 161.269ZM212.461 159.671C212.461 158.913 213.041 158.049 213.87 157.576C213.183 157.114 212.698 156.345 212.698 155.729C212.698 154.344 213.787 153.373 215.349 153.373C216.9 153.373 218.001 154.344 218.001 155.729C218.001 156.357 217.516 157.114 216.829 157.576C217.646 158.049 218.226 158.913 218.226 159.671C218.226 161.174 217.042 162.24 215.349 162.24C213.656 162.24 212.461 161.174 212.461 159.671ZM213.822 155.717C213.822 156.522 214.45 157.09 215.349 157.09C216.249 157.09 216.876 156.522 216.876 155.717C216.876 154.9 216.249 154.332 215.349 154.332C214.45 154.332 213.822 154.9 213.822 155.717Z" fill="black"/>
<path d="M221.101 162.122H219.882L223.279 154.474L219.254 154.486V153.492H224.38L224.498 154.474L221.101 162.122Z" fill="black"/>
<path d="M226.115 160.95C226.517 160.95 226.789 161.234 226.789 161.624C226.789 162.039 226.517 162.323 226.115 162.323C225.7 162.323 225.416 162.039 225.416 161.624C225.416 161.234 225.7 160.95 226.115 160.95Z" fill="black"/>
<path d="M230.263 162.122H229.044L232.441 154.474L228.416 154.486V153.492H233.542L233.661 154.474L230.263 162.122Z" fill="black"/>
<path d="M237.467 154.403C236.39 154.403 235.644 155.173 235.644 156.274C235.644 157.375 236.39 158.144 237.467 158.144C238.509 158.144 239.254 157.375 239.254 156.274C239.254 155.173 238.509 154.403 237.467 154.403ZM234.519 156.274C234.519 154.593 235.727 153.421 237.443 153.421C239.172 153.421 240.379 154.593 240.379 156.274C240.379 156.889 240.166 157.446 239.917 157.895L237.526 162.122H236.236L237.976 159.067C237.798 159.103 237.621 159.127 237.431 159.127C235.715 159.127 234.519 157.943 234.519 156.274Z" fill="black"/>
<path d="M243.642 162.122L249.052 153.48H250.236L244.803 162.122H243.642ZM241.654 155.682C241.654 154.368 242.66 153.338 243.95 153.338C245.217 153.338 246.235 154.368 246.235 155.682C246.235 157.008 245.217 158.037 243.95 158.037C242.66 158.037 241.654 157.008 241.654 155.682ZM242.743 155.682C242.743 156.404 243.264 156.972 243.95 156.972C244.625 156.972 245.158 156.404 245.158 155.682C245.158 154.972 244.625 154.403 243.95 154.403C243.264 154.403 242.743 154.972 242.743 155.682ZM247.537 159.86C247.537 158.535 248.543 157.505 249.834 157.505C251.1 157.505 252.118 158.535 252.118 159.86C252.118 161.174 251.1 162.216 249.834 162.216C248.543 162.216 247.537 161.174 247.537 159.86ZM248.626 159.86C248.626 160.571 249.147 161.139 249.834 161.139C250.508 161.139 251.041 160.571 251.041 159.86C251.041 159.138 250.508 158.582 249.834 158.582C249.147 158.582 248.626 159.138 248.626 159.86Z" fill="black"/>
<path d="M31.1839 46.3472V51.5267H36.3633V54.3459H31.1839V59.5035H28.3865V54.3459H23.207V51.5267H28.3865V46.3472H31.1839Z" fill="#D43C25"/>
<path d="M47.4015 43.375H49.6524V44.6644C51.1822 44.9704 52.6246 45.779 53.3895 46.9154L51.073 48.5545C50.7889 48.0955 50.2644 47.7677 49.6524 47.571V51.7889C50.0021 51.92 50.3955 52.073 50.767 52.2041C55.9902 53.9962 54.6789 60.9896 49.6524 61.6671V62.7598H47.4015V61.5796C45.3034 61.1644 43.4895 59.8313 42.7028 57.9518L45.3034 56.8373C45.675 57.7333 46.4617 58.3671 47.4015 58.673V53.9306C46.5273 53.5591 45.8061 53.2094 45.4127 52.9253C43.424 51.5704 42.7028 49.1882 43.7081 47.1121C44.32 45.8008 45.7624 44.8611 47.4015 44.5988V43.375ZM46.2432 48.3141C45.8935 49.1227 46.1995 50.0624 46.9862 50.5869C47.0736 50.6525 47.2266 50.7399 47.4015 50.8273V47.4836C46.8551 47.6366 46.418 47.9207 46.2432 48.3141ZM49.6524 58.7823C51.5538 58.1922 52.0783 55.6571 49.8491 54.8922L49.6524 54.8267V58.7823Z" fill="#D43C25"/>
<path d="M62.43 45.1233V61.1207L59.6108 61.077V48.0737L56.5731 49.5161L55.5459 47.0684L59.6327 45.1233H62.43Z" fill="#D43C25"/>
<path d="M73.5815 52.8379C75.0239 53.6684 76.0074 55.2419 76.0074 56.5969C76.0074 59.3068 73.6908 61.23 70.4127 61.23C67.1345 61.23 64.818 59.2194 64.818 56.3565H67.6372C67.6372 57.7551 68.7955 58.7386 70.4127 58.7386C72.0955 58.7386 73.2974 57.7551 73.2974 56.3565C73.2974 54.9796 72.1173 53.9962 70.4564 53.9962H69.3418V51.7015H70.4782C71.9862 51.7015 73.057 50.8273 73.057 49.5598C73.057 48.3359 72.0299 47.4836 70.5657 47.4836C69.1451 47.4836 68.1398 48.3578 68.1398 49.5816H65.3206C65.3206 46.8717 67.4842 44.9922 70.5657 44.9922C73.6034 44.9922 75.7451 46.7843 75.7451 49.3412C75.7451 50.5869 74.8928 52.0293 73.5815 52.8379Z" fill="#D43C25"/>
<path d="M81.7023 61.2081H78.599L84.74 47.4618L77.703 47.4836V45.0141H87.6248L87.8434 47.4618L81.7023 61.2081Z" fill="#D43C25"/>
<path d="M98.9943 45.1233V54.8048H100.786V57.2306H98.9943V61.1207H96.197V57.2306H89.3784L89.1599 54.8048L96.3281 45.1233H98.9943ZM92.4599 54.8048H96.197V49.7127L92.4599 54.8048Z" fill="#D43C25"/>
<path d="M103.673 58.6075C104.569 58.6075 105.203 59.2412 105.203 60.1373C105.203 61.0551 104.569 61.6889 103.673 61.6889C102.755 61.6889 102.122 61.0551 102.122 60.1373C102.122 59.2412 102.755 58.6075 103.673 58.6075Z" fill="#D43C25"/>
<path d="M113.401 58.8041C115.105 58.8041 116.307 57.5803 116.307 55.8757C116.307 54.1492 115.105 52.9253 113.401 52.9253C111.718 52.9253 110.516 54.1492 110.516 55.8757C110.516 57.5803 111.718 58.8041 113.401 58.8041ZM107.697 55.8757C107.697 54.6955 108.156 53.6465 108.615 52.7942L112.92 45.0578H116.154L113.073 50.5214C113.204 50.4995 113.335 50.4776 113.488 50.4776C116.81 50.5214 119.127 52.7286 119.127 55.8757C119.127 59.0445 116.766 61.2518 113.401 61.2518C110.057 61.2518 107.697 59.0445 107.697 55.8757Z" fill="#D43C25"/>
<path d="M123.81 54.2147L120.99 53.9088L121.559 45.1233H130.497V47.5929H124.269L124.05 50.8273C124.706 50.5869 125.405 50.4339 126.061 50.4339C129.448 50.4339 131.852 52.6849 131.852 55.8757C131.852 59.0664 129.448 61.3174 126.061 61.3174C123.372 61.3174 121.056 59.5472 120.466 57.0121L123.198 56.3565C123.504 57.7114 124.684 58.673 126.061 58.673C127.809 58.673 129.033 57.5147 129.033 55.8757C129.033 54.2366 127.809 53.0783 126.061 53.0783C125.361 53.0783 124.421 53.5591 123.81 54.2147Z" fill="#D43C25"/>
<path d="M21.8555 111.094H253.147V112.004H21.8555V111.094Z" fill="#F1F1F1"/>
<path d="M253.149 34.6038C253.149 41.6445 247.441 47.3522 240.401 47.3522C233.36 47.3522 227.652 41.6445 227.652 34.6038C227.652 27.5631 233.36 21.8555 240.401 21.8555C247.441 21.8555 253.149 27.5631 253.149 34.6038Z" fill="#D43C25" fill-opacity="0.16"/>
<g clip-path="url(#clip0_99_797)">
<path d="M243.129 31.872C242.625 31.872 242.218 31.4651 242.218 30.9614C242.218 30.4577 242.625 30.0508 243.129 30.0508H247.681C248.185 30.0508 248.592 30.4577 248.592 30.9614V35.5144C248.592 36.018 248.185 36.425 247.681 36.425C247.178 36.425 246.771 36.018 246.771 35.5144V33.161L241.95 37.9787C241.595 38.3344 241.017 38.3344 240.661 37.9787L237.665 34.9822L233.755 38.8893C233.399 39.245 232.822 39.245 232.466 38.8893C232.11 38.5336 232.11 37.9559 232.466 37.6002L237.019 33.0472C237.375 32.6915 237.952 32.6915 238.308 33.0472L241.307 36.0465L245.482 31.872H243.129Z" fill="#D43C25"/>
</g>
<defs>
<filter id="filter0_d_99_797" x="0" y="0" width="297" height="208.672" filterUnits="userSpaceOnUse" color-interpolation-filters="sRGB">
<feFlood flood-opacity="0" result="BackgroundImageFix"/>
<feColorMatrix in="SourceAlpha" type="matrix" values="0 0 0 0 0 0 0 0 0 0 0 0 0 0 0 0 0 0 127 0" result="hardAlpha"/>
<feOffset dx="12" dy="12"/>
<feGaussianBlur stdDeviation="5"/>
<feComposite in2="hardAlpha" operator="out"/>
<feColorMatrix type="matrix" values="0 0 0 0 0.3375 0 0 0 0 0.3375 0 0 0 0 0.3375 0 0 0 0.11 0"/>
<feBlend mode="normal" in2="BackgroundImageFix" result="effect1_dropShadow_99_797"/>
<feBlend mode="normal" in="SourceGraphic" in2="effect1_dropShadow_99_797" result="shape"/>
</filter>
<filter id="filter1_d_99_797" x="0" y="0" width="297" height="208.672" filterUnits="userSpaceOnUse" color-interpolation-filters="sRGB">
<feFlood flood-opacity="0" result="BackgroundImageFix"/>
<feColorMatrix in="SourceAlpha" type="matrix" values="0 0 0 0 0 0 0 0 0 0 0 0 0 0 0 0 0 0 127 0" result="hardAlpha"/>
<feOffset dx="12" dy="12"/>
<feGaussianBlur stdDeviation="5"/>
<feComposite in2="hardAlpha" operator="out"/>
<feColorMatrix type="matrix" values="0 0 0 0 0.3375 0 0 0 0 0.3375 0 0 0 0 0.3375 0 0 0 0.11 0"/>
<feBlend mode="normal" in2="BackgroundImageFix" result="effect1_dropShadow_99_797"/>
<feBlend mode="normal" in="SourceGraphic" in2="effect1_dropShadow_99_797" result="shape"/>
</filter>
<clipPath id="clip0_99_797">
<rect width="16.3907" height="14.5695" fill="white" transform="translate(232.203 27.3184)"/>
</clipPath>
</defs>
</svg>
