<svg width="20" height="20" viewBox="0 0 20 20" fill="none" xmlns="http://www.w3.org/2000/svg">
<g id="Frame">
<path id="Vector" d="M0.984619 10C1.76838 5.73313 5.50669 2.5 10.0002 2.5C14.4936 2.5 18.2319 5.73313 19.0157 10C18.2319 14.2668 14.4936 17.5 10.0002 17.5C5.50669 17.5 1.76838 14.2668 0.984619 10ZM10.0002 14.1667C12.3013 14.1667 14.1668 12.3012 14.1668 10C14.1668 7.69882 12.3013 5.83333 10.0002 5.83333C7.69895 5.83333 5.83347 7.69882 5.83347 10C5.83347 12.3012 7.69895 14.1667 10.0002 14.1667ZM10.0002 12.5C8.61942 12.5 7.50014 11.3807 7.50014 10C7.50014 8.61925 8.61942 7.5 10.0002 7.5C11.3808 7.5 12.5002 8.61925 12.5002 10C12.5002 11.3807 11.3808 12.5 10.0002 12.5Z" fill="#9E9EA8"/>
</g>
</svg>
