<svg width="20" height="20" viewBox="0 0 20 20" fill="none" xmlns="http://www.w3.org/2000/svg">
<g id="Frame">
<path id="Vector" d="M15.0042 16.6667H5.00423V18.3333H3.33757V16.6667H2.50423C2.044 16.6667 1.6709 16.2936 1.6709 15.8333V3.33333C1.6709 2.8731 2.044 2.5 2.50423 2.5H17.5042C17.9645 2.5 18.3376 2.8731 18.3376 3.33333V15.8333C18.3376 16.2936 17.9645 16.6667 17.5042 16.6667H16.6709V18.3333H15.0042V16.6667ZM3.33757 15H16.6709V4.16667H3.33757V15ZM10.8376 11.5617V14.1667H9.17092V11.5617C7.73322 11.1916 6.6709 9.8865 6.6709 8.33333C6.6709 6.49238 8.16328 5 10.0042 5C11.8452 5 13.3376 6.49238 13.3376 8.33333C13.3376 9.8865 12.2752 11.1916 10.8376 11.5617ZM10.0042 10C10.9247 10 11.6709 9.25383 11.6709 8.33333C11.6709 7.41286 10.9247 6.66667 10.0042 6.66667C9.08375 6.66667 8.33758 7.41286 8.33758 8.33333C8.33758 9.25383 9.08375 10 10.0042 10Z" fill="black"/>
</g>
</svg>
