<svg width="133" height="22" viewBox="0 0 133 22" fill="none" xmlns="http://www.w3.org/2000/svg">
<g id="Group 1136">
<g id="Group 1135">
<path id="Ellipse 2227" d="M132 19.0589C132 20.2186 131.066 21.1588 129.914 21.1588C128.762 21.1588 127.828 20.2186 127.828 19.0589C127.828 17.8991 128.762 16.959 129.914 16.959C131.066 16.959 132 17.8991 132 19.0589Z" fill="#FF6E30"/>
<g id="Treasurer">
<path d="M1 1V6.68297H1.4845C1.7125 1.62202 7.75452 1.48065 7.75452 1.48065H8.29602V17.4834C8.29602 19.406 7.07052 20.4239 5.87351 20.4239V20.9045H14.851V20.4239C13.654 20.4239 12.4285 19.406 12.4285 17.4834V1.48065H12.97C12.97 1.48065 19.0406 1.62202 19.2686 6.68297H19.7531V1H1Z" fill="#1D1D1D"/>
<path d="M27.0212 7.72909C26.3372 8.01183 25.1687 8.43593 23.6582 10.7826V7.58773L18.6422 8.71867V9.19932C19.8107 9.79306 20.0672 10.2172 20.0672 11.1785V17.4552C20.0672 18.9254 20.0387 20.0846 18.9272 20.4239V20.9045H24.8267V20.4239C23.8007 20.1412 23.6582 19.0385 23.6582 17.4552V11.5743C24.7127 9.87788 25.8812 9.59514 25.8812 9.90615C25.8812 10.4151 26.1092 10.8957 26.5367 11.2916C27.4487 12.0549 28.7597 11.9418 29.5292 11.0654C30.2987 10.2172 30.2132 8.86003 29.3297 8.09665C28.7027 7.58773 27.6197 7.47463 27.0212 7.72909Z" fill="#1D1D1D"/>
<path d="M35.0527 13.6383C35.0527 10.924 36.2212 8.06837 37.9027 8.06837C39.4702 8.06837 40.6387 10.0758 40.6387 13.6383H35.0527ZM38.0452 7.58773C34.1122 7.58773 31.3762 10.4433 31.3762 14.4299C31.3762 17.7379 33.9412 21.159 37.6747 21.159C41.4937 21.159 43.1752 18.9254 43.6312 17.4552L43.1467 17.2007C42.4342 18.5296 40.1542 19.095 38.6152 18.7558C36.7057 18.3317 35.2807 16.8897 35.0527 14.1189H44.1157C44.1157 9.70824 42.1777 7.58773 38.0452 7.58773Z" fill="#1D1D1D"/>
<path d="M53.8461 17.9924C53.5896 18.6709 52.934 19.4343 51.965 19.4343C50.1125 19.4343 50.1125 17.5683 50.1125 17.5683C50.1125 16.1263 51.053 14.7975 53.8461 14.1755C53.8461 14.1755 53.8461 17.9358 53.8461 17.9924ZM58.8051 19.4343C57.4086 19.4343 57.4371 17.4552 57.4371 17.4552V13.2424C57.4371 9.90615 56.4111 7.58773 52.6775 7.58773C52.6775 7.58773 51.1955 7.47463 49.913 8.15319C48.3455 8.97313 47.975 9.73651 47.69 10.2172C47.405 10.6978 47.4335 11.3764 47.7755 11.9136C48.2885 12.6487 49.286 12.8183 50.027 12.3377C50.768 11.8287 50.9675 10.8392 50.4545 10.1041C50.198 9.73651 49.8275 9.5386 49.4 9.48205C49.2005 9.45377 49.3145 8.97313 50.2265 8.52075C52.193 7.5029 53.8461 8.97313 53.8461 11.9136V13.6665C48.8585 14.9106 46.4645 15.1933 46.4645 18.2751C46.4645 21.159 49.742 21.159 49.742 21.159C51.7655 21.159 53.4471 20.1129 53.8746 18.8689C54.1881 21.159 56.7246 21.159 56.7246 21.159C58.5201 21.159 59.8311 20.0563 60.0591 19.1516L59.5746 18.9537C59.4036 19.4343 58.8051 19.4343 58.8051 19.4343Z" fill="#1D1D1D"/>
<path d="M68.9609 13.5817L66.0824 11.8005C63.6029 10.2454 64.4009 8.06837 66.2534 8.06837C69.1889 8.06837 70.1009 10.613 70.4714 11.6026H70.9559V8.43593C70.9559 8.43593 69.5309 7.58773 66.2534 7.58773C63.4034 7.58773 62.3204 9.0014 62.3204 9.0014C60.7529 11.0371 61.4939 13.3272 64.2584 14.9954L67.1369 16.7201C69.3029 18.1337 68.9609 20.6784 66.9374 20.6784C63.6029 20.6784 62.6909 17.3986 62.2634 16.296H61.7789V19.8584C61.7789 19.8584 63.4889 21.159 66.9374 21.159C69.8444 21.159 70.9274 19.6322 70.9274 19.6322C72.3524 17.5965 71.4974 15.1367 68.9609 13.5817Z" fill="#1D1D1D"/>
<path d="M87.0395 18.3034V7.58773L82.1375 8.12492V8.60557C83.591 8.77521 83.477 9.14277 83.477 10.8675V17.2573C82.8785 18.3882 81.7955 19.095 80.9975 19.095C79.3445 19.095 78.6035 18.3317 78.6035 16.7483V7.58773L73.4735 8.12492V8.60557C75.1265 8.83176 75.0695 9.08622 75.0695 10.7826V16.8332C75.0695 20.226 76.409 21.159 78.6605 21.159C80.4275 21.159 82.793 19.7171 83.477 18.1055V20.5935C83.477 20.5935 83.5055 21.2438 84.275 21.1307L88.493 20.3956V19.915C87.296 19.7736 87.0395 19.6605 87.0395 18.3034Z" fill="#1D1D1D"/>
<path d="M97.7426 7.72909C97.0586 8.01183 95.8901 8.43593 94.3796 10.7826V7.58773L89.3636 8.71867V9.19932C90.5321 9.79306 90.7886 10.2172 90.7886 11.1785V17.4552C90.7886 18.9254 90.7601 20.0846 89.6486 20.4239V20.9045H95.5481V20.4239C94.5221 20.1412 94.3796 19.0385 94.3796 17.4552V11.5743C95.4341 9.87788 96.6026 9.59514 96.6026 9.90615C96.6026 10.4151 96.8306 10.8957 97.2581 11.2916C98.1701 12.0549 99.4811 11.9418 100.251 11.0654C101.02 10.2172 100.935 8.86003 100.051 8.09665C99.4241 7.58773 98.3411 7.47463 97.7426 7.72909Z" fill="#1D1D1D"/>
<path d="M105.774 13.6383C105.774 10.924 106.943 8.06837 108.624 8.06837C110.192 8.06837 111.36 10.0758 111.36 13.6383H105.774ZM108.767 7.58773C104.834 7.58773 102.098 10.4433 102.098 14.4299C102.098 17.7379 104.663 21.159 108.396 21.159C112.215 21.159 113.897 18.9254 114.353 17.4552L113.868 17.2007C113.156 18.5296 110.876 19.095 109.337 18.7558C107.427 18.3317 106.002 16.8897 105.774 14.1189H114.837C114.837 9.70824 112.899 7.58773 108.767 7.58773Z" fill="#1D1D1D"/>
<path d="M124.795 7.72909C124.111 8.01183 122.943 8.43593 121.432 10.7826V7.58773L116.416 8.71867V9.19932C117.585 9.79306 117.841 10.2172 117.841 11.1785V17.4552C117.841 18.9254 117.813 20.0846 116.701 20.4239V20.9045H122.601V20.4239C121.575 20.1412 121.432 19.0385 121.432 17.4552V11.5743C122.487 9.87788 123.655 9.59514 123.655 9.90615C123.655 10.4151 123.883 10.8957 124.311 11.2916C125.223 12.0549 126.534 11.9418 127.303 11.0654C128.073 10.2172 127.987 8.86003 127.104 8.09665C126.477 7.58773 125.394 7.47463 124.795 7.72909Z" fill="#1D1D1D"/>
</g>
</g>
</g>
</svg>
