<svg width="20" height="20" viewBox="0 0 20 20" fill="none" xmlns="http://www.w3.org/2000/svg">
<path d="M15.0232 13.8447L18.5921 17.4136L17.4136 18.5921L13.8447 15.0232C12.5615 16.0499 10.9341 16.6641 9.16406 16.6641C5.02406 16.6641 1.66406 13.3041 1.66406 9.16406C1.66406 5.02406 5.02406 1.66406 9.16406 1.66406C13.3041 1.66406 16.6641 5.02406 16.6641 9.16406C16.6641 10.9341 16.0499 12.5615 15.0232 13.8447ZM13.3513 13.2264C14.3703 12.1762 14.9974 10.7437 14.9974 9.16406C14.9974 5.94115 12.387 3.33073 9.16406 3.33073C5.94115 3.33073 3.33073 5.94115 3.33073 9.16406C3.33073 12.387 5.94115 14.9974 9.16406 14.9974C10.7437 14.9974 12.1762 14.3703 13.2264 13.3513L13.3513 13.2264Z" fill="white"/>
</svg>
